HIERARCHY
ROOT SpineBase
{
  OFFSET 0.000000 0.000000 0.000000
  CHANNELS 6 Xposition Yposition Zposition Zrotation Xrotation Yrotation
  JOINT SpineMid
  {
    OFFSET -0.000000 29.698921 0.000000
    CHANNELS 3 Zrotation Xrotation Yrotation
    JOINT SpineShoulder
    {
      OFFSET 0.011248 22.008499 -0.833876
      CHANNELS 3 Zrotation Xrotation Yrotation
      JOINT Neck
      {
        OFFSET -0.011691 7.246529 -0.578897
        CHANNELS 3 Zrotation Xrotation Yrotation
        JOINT Head
        {
          OFFSET 4.152504 12.090135 0.728717
          CHANNELS 3 Zrotation Xrotation Yrotation
          End Site
          {
            OFFSET 0 0 0
          }
        }
      }
      JOINT ShoulderLeft
      {
        OFFSET -13.631045 -3.259500 -9.083697
        CHANNELS 3 Zrotation Xrotation Yrotation
        JOINT ElbowLeft
        {
          OFFSET -5.671887 -23.839940 -0.478026
          CHANNELS 3 Zrotation Xrotation Yrotation
          JOINT WristLeft
          {
            OFFSET -0.432983 -18.418196 -4.423897
            CHANNELS 3 Zrotation Xrotation Yrotation
            JOINT HandLeft
            {
              OFFSET 0.589644 -7.541216 -0.071168
              CHANNELS 3 Zrotation Xrotation Yrotation
              JOINT HandTipLeft
              {
                OFFSET 0.286540 -6.209369 -0.502619
                CHANNELS 3 Zrotation Xrotation Yrotation
                End Site
                {
                  OFFSET 0 0 0
                }
              }
              JOINT ThumbLeft
              {
                OFFSET 2.656700 -1.511036 -1.152222
                CHANNELS 3 Zrotation Xrotation Yrotation
                End Site
                {
                  OFFSET 0 0 0
                }
              }
            }
          }
        }
      }
      JOINT ShoulderRight
      {
        OFFSET 14.621002 -5.402046 3.721479
        CHANNELS 3 Zrotation Xrotation Yrotation
        JOINT ElbowRight
        {
          OFFSET 2.188473 -23.989941 2.889048
          CHANNELS 3 Zrotation Xrotation Yrotation
          JOINT WristRight
          {
            OFFSET -0.684550 -23.686797 -3.460420
            CHANNELS 3 Zrotation Xrotation Yrotation
            JOINT HandRight
            {
              OFFSET -0.150039 -4.972915 -0.177007
              CHANNELS 3 Zrotation Xrotation Yrotation
              JOINT HandTipRight
              {
                OFFSET 0.667960 -5.392680 1.027859
                CHANNELS 3 Zrotation Xrotation Yrotation
                End Site
                {
                  OFFSET 0 0 0
                }
              }
              JOINT ThumbRight
              {
                OFFSET -2.806467 0.451998 -2.713615
                CHANNELS 3 Zrotation Xrotation Yrotation
                End Site
                {
                  OFFSET 0 0 0
                }
              }
            }
          }
        }
      }
    }
  }
  JOINT HipLeft
  {
    OFFSET -6.389047 0.692673 -5.858712
    CHANNELS 3 Zrotation Xrotation Yrotation
    JOINT KneeLeft
    {
      OFFSET -9.360971 -29.745606 7.576097
      CHANNELS 3 Zrotation Xrotation Yrotation
      JOINT AnkleLeft
      {
        OFFSET -2.875599 -30.372387 6.898406
        CHANNELS 3 Zrotation Xrotation Yrotation
        JOINT FootLeft
        {
          OFFSET 3.260759 -5.927823 -3.762895
          CHANNELS 3 Zrotation Xrotation Yrotation
          End Site
          {
            OFFSET 0 0 0
          }
        }
      }
    }
  }
  JOINT HipRight
  {
    OFFSET 5.828741 0.702565 -0.976168
    CHANNELS 3 Zrotation Xrotation Yrotation
    JOINT KneeRight
    {
      OFFSET -8.445303 -31.091878 8.815162
      CHANNELS 3 Zrotation Xrotation Yrotation
      JOINT AnkleRight
      {
        OFFSET -7.116143 -29.079022 7.143571
        CHANNELS 3 Zrotation Xrotation Yrotation
        JOINT FootRight
        {
          OFFSET 0.212575 -7.767449 -4.151343
          CHANNELS 3 Zrotation Xrotation Yrotation
          End Site
          {
            OFFSET 0 0 0
          }
        }
      }
    }
  }
}
MOTION
Frames: 15
Frame Time: 0.033333
22.899398 56.653017 371.937957 -7.532031 -53.673738 -12.704079 -0.409468 3.694560 8.823853 -1.809784 -0.550406 0.318018 -19.576445 57.153876 17.704288 0.000000 0.000000 0.000000 -0.482812 67.233419 0.753868 5.140504 -50.518608 6.019096 24.483037 1.229602 -12.106788 -33.128913 12.897024 11.910979 0.000000 0.000000 0.000000 0.000000 0.000000 0.000000 -9.554091 23.011810 3.516329 4.967091 -20.312056 4.797257 -2.849594 45.446341 4.519350 2.857380 4.869831 -1.959462 0.000000 0.000000 0.000000 0.000000 0.000000 0.000000 -147.642330 84.124220 139.404153 18.330832 -14.382120 23.968841 -60.313194 -14.371403 11.432908 0.000000 0.000000 0.000000 -136.266513 82.018927 128.136502 5.479085 -19.573116 9.336875 -18.989482 13.378780 11.919058 0.000000 0.000000 0.000000
20.453521 56.844664 371.335348 -15.164447 -53.556470 -23.005404 -0.437256 3.229477 15.054632 -0.586839 0.208972 -0.296173 1.341033 59.870973 1.893443 0.000000 0.000000 0.000000 -0.809283 64.389100 3.634653 8.344274 -47.310120 5.634698 22.107692 3.621870 -11.202285 -34.329717 12.322942 12.099543 0.000000 0.000000 0.000000 0.000000 0.000000 0.000000 -5.952837 23.261250 2.272108 4.975377 -20.309096 4.800409 1.164508 38.058462 0.984538 2.217839 12.660823 -1.224779 0.000000 0.000000 0.000000 0.000000 0.000000 0.000000 -117.012455 83.821990 115.693032 18.512876 -10.508681 22.652584 -66.231863 -15.050886 9.073497 0.000000 0.000000 0.000000 -139.709158 78.802258 137.045861 4.086804 -23.296937 9.664368 -19.626105 29.321123 12.669358 0.000000 0.000000 0.000000
18.529390 57.608296 369.250799 -21.971070 -52.540262 -28.355089 -0.504786 2.492287 17.071162 0.793932 0.702345 -0.973795 26.643337 60.140140 -18.238259 0.000000 0.000000 0.000000 -2.821266 53.765527 8.601829 11.284081 -36.066466 1.911058 20.900474 3.936281 -10.254271 -33.962706 11.581426 11.551612 0.000000 0.000000 0.000000 0.000000 0.000000 0.000000 -2.384058 23.256733 0.999064 4.984504 -20.306643 4.803008 7.344187 33.477851 -3.547413 -3.062485 16.106740 -0.459400 0.000000 0.000000 0.000000 0.000000 0.000000 0.000000 -112.843617 88.669223 119.655676 12.437496 -9.454047 17.325205 -61.291159 -16.398749 6.826429 0.000000 0.000000 0.000000 -144.385295 80.853616 148.169048 2.524856 -23.179069 8.850015 -18.686397 45.831336 12.338454 0.000000 0.000000 0.000000
14.988449 60.816409 369.400304 -33.127897 -52.502186 -38.387480 0.182541 1.852955 20.743354 2.111356 2.127372 -1.538923 58.500638 54.680824 -42.372634 0.000000 0.000000 0.000000 -5.862446 41.835238 14.670062 21.486730 -22.496870 -3.240467 18.658241 1.464774 -7.873998 -32.852418 14.948761 11.300497 0.000000 0.000000 0.000000 0.000000 0.000000 0.000000 3.118513 24.363766 -0.821812 4.992773 -20.304102 4.805353 12.964488 34.603311 -7.342916 -7.795036 13.415400 -0.168370 0.000000 0.000000 0.000000 0.000000 0.000000 0.000000 140.993983 83.135797 -123.930265 3.616778 -10.616885 12.003193 -50.337204 -17.845694 2.310322 0.000000 0.000000 0.000000 -164.987435 76.754798 176.956812 1.191353 -27.023894 9.872562 -24.132689 61.613725 14.395322 0.000000 0.000000 0.000000
12.634271 62.654951 369.301977 -40.198963 -50.847270 -46.345631 0.831621 1.033766 25.045159 2.698340 2.454426 -1.864076 80.031314 43.636928 -56.450391 0.000000 0.000000 0.000000 -3.525355 36.465126 15.125695 25.695852 -15.619263 -6.337630 18.772034 -1.472920 -6.678232 -30.692092 17.464477 10.453974 0.000000 0.000000 0.000000 0.000000 0.000000 0.000000 7.560545 24.899202 -2.377770 4.999462 -20.302102 4.806967 17.772757 38.601219 -10.702552 -11.433836 8.062517 -0.622968 0.000000 0.000000 0.000000 0.000000 0.000000 0.000000 142.433829 77.965837 -117.360235 -8.623889 -12.360883 4.896486 -28.954099 -16.589165 0.963064 0.000000 0.000000 0.000000 -159.134552 75.129512 176.451133 3.923473 -26.987881 12.614721 -27.839076 67.864181 13.815672 0.000000 0.000000 0.000000
11.334542 64.629041 369.588547 -44.966822 -49.958803 -51.941345 1.112156 0.812985 28.204183 2.596355 2.506851 -1.902571 93.086142 31.732213 -62.591031 0.000000 0.000000 0.000000 -0.739441 34.548470 14.689773 25.648745 -14.298748 -7.316445 19.278326 -1.461220 -7.334305 -29.506342 19.492438 10.365772 0.000000 0.000000 0.000000 0.000000 0.000000 0.000000 12.648130 25.368211 -4.445678 4.861868 -20.352183 4.706048 22.105358 40.057268 -14.149202 -15.894550 6.433365 -0.543823 0.000000 0.000000 0.000000 0.000000 0.000000 0.000000 149.080779 72.923088 -119.310949 -20.967412 -14.755177 -1.813200 -3.619233 -14.135050 -1.058532 0.000000 0.000000 0.000000 -159.637637 74.387464 -178.605657 -0.395597 -25.976174 9.218543 -29.328444 65.810472 15.970436 0.000000 0.000000 0.000000
11.536106 66.062883 369.755428 -46.119466 -49.432314 -52.105213 1.136320 0.485647 27.957178 2.120560 2.671104 -1.675988 99.362920 22.827584 -63.790833 0.000000 0.000000 0.000000 1.827337 33.680372 13.541443 23.351403 -13.852911 -7.180013 19.277675 -0.931395 -8.030484 -29.537314 20.026762 10.903722 0.000000 0.000000 0.000000 0.000000 0.000000 0.000000 14.053312 25.158363 -4.907714 4.912929 -20.336384 4.737513 25.139651 42.783591 -16.432156 -18.039813 4.156138 -1.081516 0.000000 0.000000 0.000000 0.000000 0.000000 0.000000 151.941329 69.342127 -121.348811 -30.417966 -20.606065 -6.729546 16.419190 -10.111397 -4.240809 0.000000 0.000000 0.000000 -159.273869 76.923909 -177.381609 2.926291 -22.707472 10.693208 -34.128462 53.166095 15.091489 0.000000 0.000000 0.000000
12.990140 67.339852 371.068268 -44.913330 -50.633787 -49.955554 1.260792 0.309023 25.838346 1.431093 2.809895 -1.320868 101.430897 17.784895 -64.608175 0.000000 0.000000 0.000000 0.955754 31.246915 14.192800 22.574913 -10.882970 -8.201804 22.077342 -2.301665 -8.968618 -30.687431 20.330993 11.279840 0.000000 0.000000 0.000000 0.000000 0.000000 0.000000 11.533491 26.118524 -3.653647 5.116467 -20.273446 4.860253 29.989309 43.389065 -19.607284 -18.463057 0.415936 -1.625569 0.000000 0.000000 0.000000 0.000000 0.000000 0.000000 155.058213 66.513343 -127.370100 -37.577433 -25.968119 -11.416357 32.846756 -3.787536 -6.605469 0.000000 0.000000 0.000000 -159.868684 78.378703 -178.484078 6.756150 -19.761272 12.414676 -29.667984 38.631736 7.567636 0.000000 0.000000 0.000000
14.180563 67.147654 370.878814 -40.982230 -50.940280 -43.044330 1.127479 0.364347 21.103208 0.992489 2.179989 -1.213183 101.999010 19.872965 -68.393457 0.000000 0.000000 0.000000 -0.343326 28.662307 14.444134 20.295026 -9.328690 -8.481895 21.068488 -1.377443 -9.535441 -29.569266 18.105283 11.303092 0.000000 0.000000 0.000000 0.000000 0.000000 0.000000 6.486272 26.125953 -1.270054 5.500999 -20.183932 5.016398 27.657957 43.381501 -17.197718 -14.518895 -0.874138 -2.012639 0.000000 0.000000 0.000000 0.000000 0.000000 0.000000 148.592884 67.597738 -123.982239 -34.066220 -27.949776 -9.517022 46.515345 -0.675666 -12.031175 0.000000 0.000000 0.000000 177.239309 83.050258 -156.783382 9.323525 -14.200327 12.120232 -29.493515 29.260298 4.005366 0.000000 0.000000 0.000000
14.897856 63.836627 366.788539 -35.723634 -46.340392 -31.062339 0.913478 0.303220 13.893298 0.382361 1.465817 -1.032981 97.175945 22.820524 -62.190661 0.000000 0.000000 0.000000 -0.337543 21.528149 13.342668 17.858921 -7.756683 -8.338565 21.185558 -0.351016 -10.471248 -26.052969 13.490570 9.746173 0.000000 0.000000 0.000000 0.000000 0.000000 0.000000 2.585696 21.327358 -0.013305 6.126988 -20.100326 5.160993 31.188592 48.852491 -19.249895 -15.303645 -8.831147 -4.316437 0.000000 0.000000 0.000000 0.000000 0.000000 0.000000 120.848417 68.067761 -94.552854 -33.122967 -26.347258 -9.215366 65.022630 1.185614 -19.625870 0.000000 0.000000 0.000000 69.103511 79.040310 -46.497918 52.667941 36.585952 -0.074110 -78.797728 -13.671430 -31.151709 0.000000 0.000000 0.000000
16.064299 62.220916 363.132194 -31.852974 -42.274522 -17.051380 0.796746 -0.236374 3.104907 0.494928 1.470955 -0.995917 85.461674 27.151425 -51.141597 0.000000 0.000000 0.000000 -2.895218 15.588830 13.498067 17.050047 -6.738643 -8.146277 21.275412 0.003541 -11.184997 -22.789463 9.674766 8.451424 0.000000 0.000000 0.000000 0.000000 0.000000 0.000000 -2.073225 17.239674 1.092156 6.962478 -20.056324 5.264004 47.564471 60.626127 -32.230734 -20.635425 -24.216652 -9.848329 0.000000 0.000000 0.000000 0.000000 0.000000 0.000000 92.640966 61.674467 -67.017773 -26.797068 -22.658438 -5.757441 80.740553 10.276736 -27.245704 0.000000 0.000000 0.000000 57.847486 63.388525 -35.469647 165.787194 48.325884 -13.430417 -174.861479 36.626764 -9.346422 0.000000 0.000000 0.000000
17.279753 60.983476 359.134404 -28.626144 -37.687793 -3.221140 0.504855 -0.437686 -7.925816 0.836041 1.856445 -0.941239 66.518921 27.828628 -33.109226 0.000000 0.000000 0.000000 -5.483897 10.649863 13.022478 16.066178 -7.471781 -7.355168 21.031338 1.181223 -11.721200 -19.961765 6.235899 7.264311 0.000000 0.000000 0.000000 0.000000 0.000000 0.000000 -6.312344 12.251744 1.226766 7.887336 -20.066340 5.318333 64.768666 65.885050 -46.593284 -27.194520 -32.506421 -15.934131 0.000000 0.000000 0.000000 0.000000 0.000000 0.000000 71.382029 51.073086 -49.531850 -14.041495 -17.087449 0.917714 82.225276 32.971365 -33.771500 0.000000 0.000000 0.000000 54.357837 46.108862 -33.142705 -161.593725 52.292607 7.905020 134.836883 29.261919 40.902044 0.000000 0.000000 0.000000
19.459940 60.841046 355.345499 -25.560086 -34.473077 8.137710 0.276873 0.010656 -17.100955 0.868278 1.908367 -0.853915 46.005638 25.336711 -16.587971 0.000000 0.000000 0.000000 -9.625120 5.970816 13.112441 17.596522 -7.033004 -7.419725 20.826911 1.288823 -11.810480 -16.177971 4.507313 5.814056 0.000000 0.000000 0.000000 0.000000 0.000000 0.000000 -10.119301 8.549936 1.051511 8.725274 -20.121558 5.332827 75.420339 66.805060 -55.178546 -33.976801 -34.205442 -21.249063 0.000000 0.000000 0.000000 0.000000 0.000000 0.000000 58.991869 40.654001 -43.467869 -6.895461 -11.051114 3.179293 83.519877 46.229349 -37.674621 0.000000 0.000000 0.000000 48.963771 32.373048 -32.446632 -44.759186 28.125498 -14.219169 37.664359 -11.831162 29.314929 0.000000 0.000000 0.000000
20.839964 61.991273 352.116309 -24.042699 -31.359117 11.684538 0.799425 0.594098 -19.335994 0.977793 1.793727 -0.827213 31.585925 19.197482 -5.685428 0.000000 0.000000 0.000000 -13.118922 3.101911 12.671962 19.207126 -7.501819 -7.147115 19.637134 2.075973 -11.331287 -10.448590 2.970908 3.716630 0.000000 0.000000 0.000000 0.000000 0.000000 0.000000 -12.620068 5.119515 0.276971 9.283387 -20.192078 5.323449 76.929142 65.467387 -55.523423 -39.171727 -29.457083 -23.469867 0.000000 0.000000 0.000000 0.000000 0.000000 0.000000 48.479449 34.745364 -37.050677 -0.403332 -4.689707 4.343609 69.608482 59.615655 -30.837025 0.000000 0.000000 0.000000 42.279776 23.974048 -28.402478 -8.374231 11.276371 -5.474253 -6.858497 19.067398 9.025838 0.000000 0.000000 0.000000
22.383855 62.521409 349.189567 -21.741538 -27.762849 3.856278 0.600213 1.206027 -9.910848 0.623454 0.760610 -0.853709 21.895889 12.993836 0.618066 0.000000 0.000000 0.000000 -14.217475 2.301287 11.632264 18.008725 -8.438149 -5.924799 19.286530 4.032761 -11.048668 -5.404314 -0.050610 1.871730 0.000000 0.000000 0.000000 0.000000 0.000000 0.000000 -13.771031 2.242149 -0.727137 9.383428 -20.242357 5.303829 70.832410 62.239165 -49.292425 -41.997223 -17.455214 -20.637918 0.000000 0.000000 0.000000 0.000000 0.000000 0.000000 34.441067 33.794048 -21.679023 1.629515 0.849467 2.969915 26.909206 64.276188 3.414246 0.000000 0.000000 0.000000 31.765622 24.848376 -16.535657 -1.092960 11.260776 -3.721019 -19.691238 43.010728 13.856196 0.000000 0.000000 0.000000
